<svg xmlns="http://www.w3.org/2000/svg" xmlns:xlink="http://www.w3.org/1999/xlink">

<symbol id="svg-text" viewBox="0 0 347 50">
    <path d="M24.2093 18.4383L14.3862 27.8968H27.8457L37.5526 18.4383H24.2093ZM0 31L32.1619 0.00540337L43.1247 0L26.5697 16.044L49.4266 16.0079C49.8385 16.2078 49.9803 16.4423 49.8507 16.719L38.3257 27.8968H63L59.7901 31H0Z" fill="black"/>
    <path d="M75.6909 23.7712H87.3373L90.9824 20.1081H79.3673L75.6909 23.7712ZM59 31L71.3313 18.7137C71.7645 18.2376 72.3597 18 73.121 18H100.613C101.177 18.0645 101.285 18.2938 100.939 18.6829L95.0491 24.5179H74.9435L71.1693 28.3092H82.8491L84.1175 27.1425L92.4459 27.1116L91.2754 28.3092H112L109.299 31H59Z" fill="black"/>
    <path d="M125.198 15H134.415L131.035 18.3903H148.978C149.46 18.3903 149.755 18.5922 149.865 18.9948C149.973 19.398 149.853 19.7718 149.503 20.1201L140.91 28.7326H162L159.277 31.4385H131.167C130.183 31.4385 129.909 31.0803 130.348 30.3643L140.187 20.5111H128.871L99.316 50H90L125.198 15Z" fill="black"/>
    <path d="M175.691 23.7712H187.337L190.983 20.1081H179.367L175.691 23.7712ZM159 31L171.331 18.7137C171.765 18.2376 172.362 18 173.121 18H200.613C201.177 18.0645 201.284 18.2938 200.939 18.6829L195.05 24.5179H174.943L171.169 28.3092H182.849L184.117 27.1425L192.447 27.1116L191.275 28.3092H212L209.299 31H159Z" fill="black"/>
    <path d="M250 31L281.067 0H290.158L264.615 25.3738L282.092 19.0479H288.037L273.324 24.3524L277.629 28.3472H297L294.365 31H271.043L266.77 26.0139L262.08 27.9006L258.963 31H250Z" fill="black"/>
    <path d="M293 31L305.432 19.0343C305.981 18.5057 306.671 18.2385 307.486 18.2385H326.216L324.061 20.3074H313.619L305.265 28.3588H316.536L328.402 17H337.586L328.702 25.4955C328.107 26.0912 327.805 26.6197 327.805 27.0856C327.873 27.9367 328.38 28.3588 329.332 28.3588H347L344.25 31H293Z" fill="black"/>
    <path d="M237.4 28.5177H257L254.324 31H209L211.643 28.5177L227.858 20.9474H221.345L220.412 21.8143H215.898L218.865 19C223.441 19 227.418 19.0052 230.791 19.0166C234.164 19.0274 238.141 19.031 242.721 19.031L221.829 27.348L232.371 27.3792L237.4 28.5177Z" fill="black"/>
    <path d="M234.946 29H256L253.352 31.5444H232.298L219.383 43.817C215.744 47.2732 211.257 49 205.918 49H193L196.391 45.8098L202.721 45.7802C204.334 45.5965 205.867 45.299 207.322 44.8896C208.774 44.4812 210.115 43.7238 211.342 42.6195L223.161 31.5444L234.946 29Z" fill="black"/>
    <path d="M249.584 3H32V0H251.997L249.584 3Z" fill="black"/>
    <path d="M176 15H185.65L189 12H179.388L176 15Z" fill="black"/>
    <path d="M189 15H197.908L201 12H192.127L189 15Z" fill="black"/>
</symbol>

</svg>